<svg width="458" height="302" viewBox="0 0 458 302" fill="none" xmlns="http://www.w3.org/2000/svg">
<path d="M353.696 27.6593C353.696 27.6593 324.709 -17.3119 265.087 28.4851C265.087 28.4851 248.652 21.3679 225.642 29.7295H225.565C211.737 34.7765 195.536 45.4139 179.108 66.5312C179.108 66.5312 166.859 60.9503 159.137 72.3655C155.789 77.3241 153.042 85.9777 152.662 97.7827C152.146 113.116 155.662 133.689 167.053 158.066L161.212 168.605L146.109 195.966L110.733 259.974L138.749 243.249C138.749 243.249 156.498 262.968 183.939 259.838L191.143 293.431L222.596 226.536C222.596 226.536 224.727 226.536 228.35 226.272C249.129 224.584 268.815 216.275 284.504 202.568C300.196 188.86 311.06 170.481 315.497 150.142C317.445 141.292 318.361 132.007 317.007 123.684C328.092 114.176 337.797 103.17 345.838 90.9862C349.511 85.3766 352.594 79.404 355.04 73.1625C360.512 58.8897 361.914 43.0402 353.696 27.6593ZM308.906 73.2508C303.979 57.0326 287.27 45.7634 287.27 45.7634C287.27 45.7634 306.306 28.4467 320.278 43.1766C333.754 57.3822 308.916 73.2508 308.916 73.2508H308.906Z" fill="#50C56E"/>
<path d="M191.115 294.404H191.009C190.803 294.381 190.611 294.295 190.459 294.156C190.307 294.018 190.203 293.836 190.161 293.636L183.141 260.898C158.701 263.279 141.795 247.722 138.564 244.484L111.299 260.869C111.116 260.978 110.901 261.025 110.689 261C110.476 260.977 110.278 260.883 110.124 260.735C109.97 260.585 109.868 260.391 109.835 260.18C109.805 259.968 109.843 259.753 109.947 259.565L145.321 195.558L166.013 158.085C153.462 131.006 151.319 110.354 151.739 97.8016C152.089 87.1066 154.504 77.6061 158.379 71.8793C165.37 61.5626 175.983 64.4126 178.827 65.4228C193.12 47.2015 208.749 34.9125 225.273 28.8727H225.371C246.432 21.2216 261.895 26.2686 264.982 27.4343C286.15 11.2948 305.877 4.6635 323.559 7.72662C336.041 9.90825 347.169 16.891 354.554 27.1712V27.2403C361.964 41.106 362.422 56.6924 355.927 73.552C353.452 79.8549 350.336 85.889 346.628 91.5582C338.612 103.653 328.992 114.607 318.03 124.121C319.149 131.578 318.603 140.409 316.422 150.374C311.941 170.919 300.967 189.482 285.12 203.327C269.27 217.169 249.386 225.562 228.398 227.265C225.877 227.459 224.075 227.518 223.19 227.528L192.03 293.868C191.945 294.037 191.815 294.175 191.651 294.271C191.49 294.366 191.303 294.412 191.115 294.404ZM183.91 258.866C184.135 258.86 184.356 258.933 184.535 259.073C184.712 259.214 184.835 259.411 184.883 259.634L191.486 290.408L221.671 226.128C221.755 225.965 221.882 225.827 222.038 225.727C222.194 225.629 222.373 225.571 222.555 225.563C222.555 225.563 224.698 225.563 228.233 225.31C248.802 223.633 268.288 215.404 283.82 201.834C299.352 188.264 310.108 170.072 314.505 149.936C316.685 139.952 317.191 131.171 316.005 123.839C315.978 123.672 315.995 123.501 316.055 123.342C316.114 123.184 316.214 123.044 316.345 122.935C327.338 113.478 336.972 102.549 344.972 90.4597C348.611 84.9096 351.665 79.0003 354.086 72.8223C360.366 56.5157 359.929 41.4939 352.84 28.1641C345.684 18.3986 335.052 11.7461 323.132 9.57408C305.877 6.59738 286.539 13.2287 265.682 29.2625C265.545 29.3663 265.382 29.4315 265.21 29.4527C265.039 29.4719 264.866 29.4469 264.709 29.3797C264.543 29.3106 248.321 22.5736 225.975 30.6434H225.886C209.556 36.6045 194.074 48.8742 179.879 67.1242C179.742 67.2952 179.554 67.4162 179.342 67.4661C179.131 67.518 178.908 67.4968 178.71 67.4066C178.242 67.203 167.103 62.3212 159.947 72.8895C156.275 78.3359 153.977 87.4062 153.637 97.8016C153.217 110.237 155.36 130.724 167.94 157.675C168.011 157.814 168.047 157.965 168.047 158.119C168.047 158.273 168.011 158.424 167.94 158.561L113.412 257.299L138.291 242.385C138.486 242.268 138.714 242.223 138.938 242.256C139.161 242.291 139.366 242.4 139.518 242.569C139.693 242.753 157.277 261.879 183.87 258.835L183.91 258.866ZM308.916 74.2223C308.802 74.2223 308.691 74.203 308.585 74.1646C308.443 74.1109 308.316 74.0283 308.214 73.9169C308.11 73.8074 308.033 73.6768 307.991 73.5328C303.219 57.8485 286.899 46.6868 286.733 46.5697C286.614 46.4871 286.514 46.3795 286.441 46.2528C286.37 46.126 286.326 45.9858 286.316 45.8399C286.304 45.6939 286.327 45.548 286.381 45.4116C286.435 45.2753 286.52 45.1524 286.627 45.0525C286.822 44.8681 306.529 27.2595 320.999 42.5156C324.271 45.9666 325.673 49.8268 325.167 53.9692C323.832 64.7717 310.025 73.698 309.441 74.0763C309.283 74.1743 309.1 74.2242 308.916 74.2223ZM288.866 45.7151C292.557 48.4171 304.787 58.1884 309.441 71.7237C312.654 69.4384 322.217 62.0005 323.228 53.7464C323.667 50.1974 322.44 46.8712 319.588 43.858C314.095 38.0237 307.152 36.7293 298.944 39.8519C295.311 41.2923 291.914 43.2684 288.866 45.7151Z" fill="#2E1E00"/>
<path d="M225.654 29.7286H225.567C211.749 34.766 195.548 45.4034 179.11 66.5303C179.11 66.5303 166.861 60.9398 159.149 72.3646C155.791 77.3232 153.044 85.9768 152.664 97.7914C141.467 99.1031 129.802 95.9151 143.346 71.0126C165.595 30.1185 201.554 17.2726 213.834 19.0433C220.903 20.0841 224.165 25.4115 225.654 29.7286Z" fill="#50C56E"/>
<path d="M148.671 99.0272C143.442 99.0272 139.809 97.5773 137.863 94.7101C134.687 90.0222 136.207 82.1273 142.488 70.5661C164.592 29.9428 200.521 16.1751 213.968 18.0629C221.544 19.1614 225 24.819 226.567 29.3801C226.648 29.6144 226.637 29.8717 226.533 30.0984C226.429 30.323 226.244 30.5017 226.013 30.5958H225.925C209.556 36.5645 194.074 48.8362 179.877 67.0863C179.745 67.2591 179.556 67.382 179.345 67.4339C179.133 67.4877 178.91 67.4665 178.71 67.3782C178.233 67.1631 167.103 62.2832 159.956 72.8515C156.275 78.2979 153.968 87.3682 153.637 97.7636C153.639 98.0017 153.552 98.2322 153.394 98.4127C153.235 98.5913 153.018 98.7065 152.779 98.7353C151.415 98.9082 150.044 99.0061 148.671 99.0272ZM211.397 19.8796C205.02 19.8796 194.436 22.7968 182.829 29.8852C171.923 36.5261 156.362 49.1377 144.202 71.5014C138.359 82.1964 136.782 89.6535 139.468 93.6212C141.796 97.0434 147.259 97.3545 151.717 96.9263C152.166 86.5328 154.562 77.4798 158.339 71.8413C165.32 61.5246 175.935 64.3823 178.787 65.4039C192.847 47.4746 208.195 35.2625 224.396 29.1554C222.877 25.2665 219.821 20.9109 213.686 20.0256C212.928 19.9238 212.162 19.8758 211.397 19.8796Z" fill="#2E1E00"/>
<path d="M161.228 168.664L146.125 196.035C90.6224 152.805 91.5955 78.5106 110.672 77.2949C130.458 76.0313 129.523 95.3222 134.499 123.111C138.326 144.559 154.196 161.897 161.228 168.664Z" fill="#50C56E"/>
<path d="M146.119 196.997C145.902 196.999 145.688 196.926 145.515 196.793C100.442 161.662 93.665 108.468 100.052 87.796C102.244 80.6884 105.993 76.6247 110.599 76.3232C128.125 75.2132 130.189 89.1172 133.393 110.179C134.006 114.242 134.649 118.443 135.447 122.934C139.255 144.248 155.214 161.526 161.903 167.963C162.059 168.113 162.161 168.309 162.191 168.522C162.224 168.735 162.184 168.952 162.078 169.141L146.967 196.501C146.898 196.622 146.805 196.728 146.692 196.81C146.58 196.891 146.452 196.949 146.315 196.977C146.25 196.993 146.184 197.001 146.119 196.997ZM112.459 78.2091C111.912 78.2091 111.337 78.2091 110.755 78.2667C107.014 78.501 103.879 82.0884 101.991 88.3702C95.7786 108.458 102.369 159.999 145.896 194.556L160.093 168.849C152.994 161.897 137.424 144.599 133.606 123.276C132.799 118.763 132.166 114.525 131.543 110.471C128.437 90.5384 126.558 78.2091 112.459 78.2091Z" fill="#2E1E00"/>
<path d="M225.138 169.753C224.919 169.751 224.706 169.677 224.534 169.538C224.194 169.266 190.201 141.594 189.822 107.223C189.453 73.6098 178.76 67.4855 178.654 67.4259C178.444 67.2973 178.291 67.0937 178.225 66.8575C178.16 66.6213 178.187 66.3678 178.3 66.1488C178.414 65.9318 178.606 65.7647 178.837 65.6822C179.069 65.5996 179.323 65.6072 179.55 65.7052C180.027 65.9491 191.39 72.1618 191.768 107.204C192.14 140.67 225.421 167.75 225.752 168.021C225.852 168.102 225.935 168.202 225.996 168.313C226.058 168.426 226.098 168.549 226.111 168.678C226.125 168.805 226.111 168.933 226.077 169.056C226.04 169.179 225.979 169.292 225.898 169.392C225.806 169.506 225.69 169.596 225.56 169.659C225.429 169.721 225.285 169.753 225.138 169.753Z" fill="#2E1E00"/>
<path d="M190.807 108.185C190.615 108.187 190.426 108.132 190.265 108.026C190.105 107.92 189.978 107.769 189.903 107.592C189.83 107.415 189.809 107.221 189.843 107.031C189.88 106.843 189.97 106.67 190.105 106.532L232.093 63.5752C232.181 63.485 232.289 63.412 232.406 63.362C232.523 63.3121 232.65 63.2852 232.777 63.2833C232.906 63.2814 233.033 63.3064 233.15 63.3544C233.27 63.4005 233.377 63.4715 233.47 63.5618C233.562 63.6501 233.633 63.7577 233.685 63.8748C233.735 63.992 233.76 64.1187 233.762 64.2455C233.764 64.3741 233.739 64.5009 233.693 64.618C233.645 64.7371 233.574 64.8446 233.485 64.9368L191.507 107.942C191.315 108.112 191.063 108.201 190.807 108.185Z" fill="#2E1E00"/>
<path d="M199.607 201.732C199.413 201.732 199.223 201.675 199.063 201.567C189.472 195.013 181.039 183.648 175.694 175.315C172.213 169.924 169.049 164.337 166.218 158.58C166.109 158.348 166.093 158.079 166.182 157.835C166.268 157.593 166.447 157.393 166.682 157.282C166.915 157.172 167.184 157.157 167.428 157.245C167.67 157.332 167.87 157.51 167.982 157.745C168.119 158.046 182.333 187.778 200.202 200C200.371 200.119 200.5 200.288 200.565 200.484C200.633 200.68 200.636 200.891 200.573 201.089C200.511 201.287 200.388 201.458 200.221 201.581C200.056 201.704 199.854 201.771 199.646 201.771L199.607 201.732Z" fill="#2E1E00"/>
<path d="M151.814 185.708L162.572 200.409L144.842 198.329L151.814 185.708Z" fill="#2E1E00"/>
<path d="M162.574 201.381H162.468L144.736 199.34C144.578 199.32 144.427 199.263 144.296 199.171C144.165 199.078 144.059 198.957 143.986 198.815C143.911 198.673 143.873 198.518 143.873 198.358C143.873 198.199 143.911 198.041 143.986 197.901L150.958 185.261C151.037 185.117 151.15 184.996 151.289 184.907C151.425 184.819 151.583 184.765 151.746 184.756C151.91 184.744 152.073 184.777 152.221 184.846C152.369 184.915 152.498 185.021 152.594 185.153L163.305 199.854C163.411 200 163.476 200.171 163.489 200.352C163.505 200.53 163.468 200.711 163.386 200.87C163.305 201.03 163.18 201.164 163.026 201.258C162.872 201.352 162.697 201.402 162.516 201.4L162.574 201.381ZM146.402 197.492L160.472 199.146L151.933 187.477L146.402 197.492Z" fill="#2E1E00"/>
<path d="M142.942 201.78L151.402 210.541L138.599 209.646L142.182 203.355" fill="#2E1E00"/>
<path d="M151.408 211.514H151.331L138.526 210.619C138.363 210.607 138.203 210.553 138.064 210.463C137.928 210.373 137.814 210.25 137.737 210.104C137.651 209.956 137.607 209.789 137.607 209.618C137.607 209.447 137.651 209.28 137.737 209.132L141.33 202.85C141.415 202.701 141.536 202.578 141.682 202.489C141.83 202.403 141.997 202.357 142.169 202.355C142.026 202.157 141.963 201.915 141.99 201.675C142.017 201.433 142.134 201.212 142.317 201.053C142.499 200.893 142.736 200.807 142.978 200.813C143.221 200.819 143.453 200.913 143.628 201.08L152.09 209.831C152.223 209.968 152.316 210.14 152.35 210.329C152.387 210.517 152.367 210.711 152.292 210.887C152.219 211.062 152.094 211.214 151.937 211.32C151.777 211.427 151.59 211.483 151.398 211.485L151.408 211.514ZM140.211 208.781L148.975 209.393L143.132 203.403C143.126 203.555 143.084 203.703 143.005 203.832L140.211 208.781Z" fill="#2E1E00"/>
<path d="M287.905 135.79C286.306 135.806 284.714 135.62 283.162 135.235C281.144 134.753 279.258 133.828 277.642 132.526C276.027 131.224 274.723 129.578 273.825 127.709C266.424 113.338 279.823 96.596 292.326 85.152C297.357 80.5448 302.709 76.2968 308.343 72.4443C308.558 72.3022 308.82 72.2523 309.071 72.3042C309.321 72.3541 309.545 72.502 309.687 72.7151C309.758 72.8227 309.808 72.9417 309.831 73.0666C309.856 73.1933 309.856 73.322 309.831 73.4488C309.806 73.5736 309.756 73.6927 309.685 73.8002C309.612 73.9058 309.522 73.9961 309.414 74.0671C303.869 77.8658 298.598 82.0466 293.64 86.5808C281.604 97.608 268.693 113.534 275.529 126.826C276.304 128.443 277.431 129.868 278.827 130.997C280.223 132.126 281.854 132.929 283.6 133.35C296.336 136.549 316.191 123.023 316.395 122.887C316.609 122.745 316.868 122.693 317.12 122.741C317.372 122.791 317.595 122.935 317.739 123.146C317.884 123.357 317.939 123.617 317.893 123.868C317.849 124.12 317.705 124.345 317.495 124.492C316.776 125.007 300.952 135.79 287.905 135.79Z" fill="#2E1E00"/>
<path d="M287.279 46.7348C287.06 46.7367 286.847 46.6637 286.676 46.5312C281.535 42.4464 274.017 40.2878 274.017 40.2686C273.894 40.2341 273.778 40.1764 273.676 40.0958C273.576 40.017 273.492 39.9172 273.43 39.8058C273.367 39.6944 273.327 39.5696 273.313 39.4428C273.298 39.3161 273.309 39.1874 273.346 39.0626C273.417 38.8187 273.584 38.6113 273.807 38.4865C274.032 38.3635 274.296 38.3328 274.542 38.4019C274.863 38.4903 282.468 40.6777 287.922 45.0045C288.022 45.0832 288.106 45.1831 288.168 45.2945C288.231 45.4058 288.27 45.5307 288.285 45.6574C288.299 45.7842 288.289 45.9147 288.253 46.0377C288.218 46.1606 288.158 46.2758 288.078 46.3757C287.981 46.4928 287.86 46.5869 287.72 46.6503C287.581 46.7117 287.431 46.7406 287.279 46.7348Z" fill="#2E1E00"/>
<path d="M175.673 223.513H175.527C175.273 223.475 175.044 223.337 174.892 223.131C174.738 222.926 174.673 222.668 174.709 222.415C175.838 214.762 168.447 211.718 168.136 211.572C167.895 211.478 167.703 211.29 167.601 211.053C167.499 210.817 167.495 210.548 167.592 210.308C167.686 210.068 167.874 209.876 168.111 209.774C168.347 209.673 168.617 209.669 168.857 209.765C168.944 209.765 178 213.508 176.646 222.695C176.61 222.926 176.49 223.135 176.311 223.285C176.133 223.435 175.906 223.515 175.673 223.513Z" fill="#2E1E00"/>
<path d="M159.922 221.422C161.928 221.422 163.555 219.799 163.555 217.796C163.555 215.793 161.928 214.168 159.922 214.168C157.916 214.168 156.291 215.793 156.291 217.796C156.291 219.799 157.916 221.422 159.922 221.422Z" fill="#2E1E00"/>
<path d="M172.79 232.427C173.942 232.427 174.875 231.496 174.875 230.347C174.875 229.199 173.942 228.266 172.79 228.266C171.64 228.266 170.707 229.199 170.707 230.347C170.707 231.496 171.64 232.427 172.79 232.427Z" fill="#2E1E00"/>
<path d="M148.313 221.995C149.481 221.995 150.427 221.05 150.427 219.885C150.427 218.719 149.481 217.776 148.313 217.776C147.148 217.776 146.202 218.719 146.202 219.885C146.202 221.05 147.148 221.995 148.313 221.995Z" fill="#2E1E00"/>
<path d="M179.316 249.429C183.793 247.949 186.826 244.955 186.093 242.742C185.358 240.53 181.135 239.937 176.658 241.417C172.18 242.898 169.146 245.892 169.88 248.104C170.615 250.317 174.838 250.91 179.316 249.429Z" fill="#2E1E00"/>
<path d="M146.729 237.904C148.679 236.623 148.157 232.396 145.567 228.461C142.974 224.526 139.293 222.373 137.343 223.654C135.393 224.935 135.914 229.162 138.505 233.097C141.097 237.032 144.778 239.185 146.729 237.904Z" fill="#2E1E00"/>
<path d="M222.567 226.535L200.863 217.338L216.53 239.369L222.567 226.535Z" fill="#2E1E00"/>
<path d="M216.538 240.344C216.382 240.344 216.228 240.307 216.09 240.236C215.949 240.165 215.83 240.061 215.739 239.935L200.092 217.901C199.963 217.732 199.894 217.527 199.894 217.314C199.894 217.1 199.963 216.895 200.092 216.726C200.225 216.561 200.41 216.445 200.613 216.394C200.819 216.344 201.036 216.361 201.231 216.444L222.927 225.641C223.048 225.692 223.157 225.767 223.25 225.862C223.342 225.956 223.413 226.067 223.459 226.19C223.507 226.313 223.529 226.443 223.525 226.574C223.519 226.706 223.488 226.835 223.432 226.954L217.395 239.789C217.322 239.942 217.213 240.073 217.074 240.171C216.936 240.267 216.774 240.326 216.607 240.344H216.538ZM203.646 219.574L216.363 237.455L221.232 227.043L203.646 219.574Z" fill="#2E1E00"/>
<path d="M213.86 245.048L197.084 238.874L208.993 255.413L213.86 245.048Z" fill="#2E1E00"/>
<path d="M208.993 256.385C208.837 256.385 208.685 256.348 208.549 256.277C208.41 256.206 208.293 256.102 208.202 255.978L196.303 239.448C196.182 239.279 196.119 239.076 196.123 238.866C196.127 238.659 196.196 238.457 196.323 238.292C196.448 238.127 196.625 238.006 196.825 237.948C197.025 237.891 197.238 237.899 197.434 237.97L214.201 244.144C214.328 244.192 214.443 244.263 214.539 244.357C214.636 244.449 214.713 244.562 214.764 244.685C214.816 244.81 214.839 244.945 214.838 245.079C214.834 245.214 214.803 245.344 214.747 245.467L209.878 255.832C209.804 255.985 209.693 256.118 209.553 256.216C209.412 256.312 209.249 256.371 209.079 256.385H208.993ZM199.742 240.887L208.816 253.527L212.535 245.623L199.742 240.887Z" fill="#2E1E00"/>
<path d="M293.02 85.8598L320.322 96.7315L307.362 74.3198L293.02 85.8598Z" fill="#2E1E00"/>
<path d="M320.318 97.7044C320.195 97.7044 320.072 97.6814 319.959 97.6372L292.693 86.7655C292.536 86.7041 292.397 86.6004 292.291 86.4679C292.186 86.3334 292.116 86.176 292.091 86.007C292.066 85.8418 292.086 85.6709 292.147 85.5134C292.209 85.3579 292.311 85.2196 292.441 85.1139L306.775 73.572C306.883 73.4837 307.01 73.4184 307.146 73.3838C307.283 73.3473 307.425 73.3435 307.564 73.3685C307.702 73.3915 307.835 73.4472 307.95 73.5279C308.066 73.6085 308.164 73.7122 308.235 73.8351L321.167 96.2756C321.267 96.4504 321.309 96.652 321.29 96.8517C321.27 97.0515 321.19 97.2416 321.059 97.3933C320.965 97.4951 320.849 97.5758 320.722 97.6295C320.595 97.6833 320.457 97.7083 320.318 97.7044ZM294.934 85.5806L318.08 94.7873L307.087 75.7978L294.934 85.5806Z" fill="#2E1E00"/>
<path d="M355.017 73.1627C352.561 79.4042 349.476 85.3787 345.807 90.9961L328.561 67.6606L355.017 73.1627Z" fill="#2E1E00"/>
<path d="M345.809 91.967C345.657 91.9651 345.507 91.9286 345.372 91.8595C345.238 91.7904 345.12 91.6905 345.03 91.5676L327.786 68.2821C327.675 68.1189 327.615 67.9287 327.615 67.7328C327.615 67.537 327.675 67.3449 327.786 67.1836C327.888 67.0242 328.036 66.9013 328.21 66.8245C328.381 66.7477 328.573 66.7246 328.76 66.7554L355.215 72.2094C355.352 72.2382 355.483 72.2978 355.594 72.3823C355.708 72.4648 355.8 72.5724 355.867 72.6953C355.937 72.8201 355.977 72.9565 355.987 73.0986C355.996 73.2388 355.977 73.3809 355.925 73.5134C353.452 79.8163 350.334 85.8504 346.626 91.5196C346.542 91.6521 346.424 91.7635 346.288 91.8403C346.151 91.919 345.995 91.9613 345.838 91.967H345.809ZM330.862 69.1751L345.751 89.2746C348.851 84.3909 351.507 79.2402 353.686 73.8822L330.862 69.1751Z" fill="#2E1E00"/>
<path d="M311.364 127.108L303.311 107.417L325.328 115.964C325.328 115.964 318.638 123.499 311.364 127.108Z" fill="#2E1E00"/>
<path d="M311.364 128.079C311.249 128.079 311.133 128.06 311.023 128.02C310.898 127.974 310.785 127.899 310.689 127.807C310.595 127.712 310.52 127.599 310.47 127.476L302.436 107.786C302.365 107.609 302.346 107.415 302.384 107.229C302.423 107.043 302.515 106.872 302.65 106.737C302.782 106.603 302.952 106.509 303.138 106.47C303.323 106.43 303.515 106.445 303.692 106.513L325.717 115.059C325.863 115.116 325.994 115.208 326.098 115.327C326.202 115.447 326.275 115.587 326.311 115.74C326.348 115.894 326.346 116.053 326.307 116.205C326.267 116.357 326.192 116.499 326.088 116.616C325.805 116.927 319.155 124.315 311.802 127.981C311.666 128.049 311.516 128.081 311.364 128.079ZM305.094 109.138L311.91 125.756C316.26 123.176 320.232 120.01 323.711 116.343L305.094 109.138Z" fill="#2E1E00"/>
</svg>
